HIERARCHY
ROOT hip
{
  OFFSET 0 0 0
  CHANNELS 6 Xposition Yposition Zposition Zrotation Yrotation Xrotation
  JOINT abdomen
  {
    OFFSET 0 20.6881 -0.73152
    CHANNELS 3 Zrotation Xrotation Yrotation
    JOINT chest
    {
      OFFSET 0 11.7043 -0.48768
      CHANNELS 3 Zrotation Xrotation Yrotation
      JOINT neck
      {
        OFFSET 0 22.1894 -2.19456
        CHANNELS 3 Zrotation Xrotation Yrotation
        JOINT head
        {
          OFFSET -0.24384 7.07133 1.2192
          CHANNELS 3 Zrotation Xrotation Yrotation
          JOINT leftEye
          {
            OFFSET 4.14528 8.04674 8.04672
            CHANNELS 3 Zrotation Xrotation Yrotation
            End Site
            {
              OFFSET 1 0 0
            }
          }
          JOINT rightEye
          {
            OFFSET -3.6576 8.04674 8.04672
            CHANNELS 3 Zrotation Xrotation Yrotation
            End Site
            {
              OFFSET 1 0 0
            }
          }
        }
      }
      JOINT rCollar
      {
        OFFSET -2.68224 19.2634 -4.8768
        CHANNELS 3 Zrotation Xrotation Yrotation
        JOINT rShldr
        {
          OFFSET -8.77824 -1.95073 1.46304
          CHANNELS 3 Zrotation Xrotation Yrotation
          JOINT rForeArm
          {
            OFFSET -28.1742 -1.7115 0.48768
            CHANNELS 3 Zrotation Xrotation Yrotation
            JOINT rHand
            {
              OFFSET -22.5879 0.773209 7.07136
              CHANNELS 3 Zrotation Xrotation Yrotation
              JOINT rThumb1
              {
                OFFSET -1.2192 -0.487915 3.41376
                CHANNELS 3 Zrotation Xrotation Yrotation
                JOINT rThumb2
                {
                  OFFSET -3.37035 -0.52449 3.41376
                  CHANNELS 3 Zrotation Xrotation Yrotation
                  End Site
                  {
                    OFFSET -1.78271 -1.18214 1.43049
                  }
                }
              }
              JOINT rIndex1
              {
                OFFSET -7.75947 0.938293 5.60832
                CHANNELS 3 Zrotation Xrotation Yrotation
                JOINT rIndex2
                {
                  OFFSET -2.54057 -0.884171 1.56538
                  CHANNELS 3 Zrotation Xrotation Yrotation
                  End Site
                  {
                    OFFSET -1.62519 -0.234802 1.16502
                  }
                }
              }
              JOINT rMid1
              {
                OFFSET -8.24714 1.18213 3.41376
                CHANNELS 3 Zrotation Xrotation Yrotation
                JOINT rMid2
                {
                  OFFSET -3.10165 -0.590103 1.0647
                  CHANNELS 3 Zrotation Xrotation Yrotation
                  End Site
                  {
                    OFFSET -2.48547 -0.328903 0.83742
                  }
                }
              }
              JOINT rRing1
              {
                OFFSET -8.82822 0.546677 1.51678
                CHANNELS 3 Zrotation Xrotation Yrotation
                JOINT rRing2
                {
                  OFFSET -2.60934 -0.819778 -0.0198488
                  CHANNELS 3 Zrotation Xrotation Yrotation
                  End Site
                  {
                    OFFSET -2.33842 -0.294052 0.168128
                  }
                }
              }
              JOINT rPinky1
              {
                OFFSET -8.27202 -0.0477905 -0.4584
                CHANNELS 3 Zrotation Xrotation Yrotation
                JOINT rPinky2
                {
                  OFFSET -1.82734 -0.647385 -0.700984
                  CHANNELS 3 Zrotation Xrotation Yrotation
                  End Site
                  {
                    OFFSET -1.69225 -0.51767 -0.607171
                  }
                }
              }
            }
          }
        }
      }
      JOINT lCollar
      {
        OFFSET 2.68224 19.2634 -4.8768
        CHANNELS 3 Zrotation Xrotation Yrotation
        JOINT lShldr
        {
          OFFSET 8.77824 -1.95073 1.46304
          CHANNELS 3 Zrotation Xrotation Yrotation
          JOINT lForeArm
          {
            OFFSET 28.1742 -1.7115 0.48768
            CHANNELS 3 Zrotation Xrotation Yrotation
            JOINT lHand
            {
              OFFSET 22.5879 0.773209 7.07136
              CHANNELS 3 Zrotation Xrotation Yrotation
              JOINT lThumb1
              {
                OFFSET 1.2192 -0.487915 3.41376
                CHANNELS 3 Zrotation Xrotation Yrotation
                JOINT lThumb2
                {
                  OFFSET 3.37035 -0.52449 3.41376
                  CHANNELS 3 Zrotation Xrotation Yrotation
                  End Site
                  {
                    OFFSET 1.78271 -1.18214 1.43049
                  }
                }
              }
              JOINT lIndex1
              {
                OFFSET 7.75947 0.938293 5.60832
                CHANNELS 3 Zrotation Xrotation Yrotation
                JOINT lIndex2
                {
                  OFFSET 2.54057 -0.884171 1.56538
                  CHANNELS 3 Zrotation Xrotation Yrotation
                  End Site
                  {
                    OFFSET 1.62519 -0.234802 1.16502
                  }
                }
              }
              JOINT lMid1
              {
                OFFSET 8.24714 1.18213 3.41376
                CHANNELS 3 Zrotation Xrotation Yrotation
                JOINT lMid2
                {
                  OFFSET 3.10165 -0.590103 1.0647
                  CHANNELS 3 Zrotation Xrotation Yrotation
                  End Site
                  {
                    OFFSET 2.48547 -0.328903 0.83742
                  }
                }
              }
              JOINT lRing1
              {
                OFFSET 8.82822 0.546677 1.51678
                CHANNELS 3 Zrotation Xrotation Yrotation
                JOINT lRing2
                {
                  OFFSET 2.60934 -0.819778 -0.0198488
                  CHANNELS 3 Zrotation Xrotation Yrotation
                  End Site
                  {
                    OFFSET 2.33842 -0.294052 0.168128
                  }
                }
              }
              JOINT lPinky1
              {
                OFFSET 8.27202 -0.0477905 -0.4584
                CHANNELS 3 Zrotation Xrotation Yrotation
                JOINT lPinky2
                {
                  OFFSET 1.82734 -0.647385 -0.700984
                  CHANNELS 3 Zrotation Xrotation Yrotation
                  End Site
                  {
                    OFFSET 1.69225 -0.51767 -0.607171
                  }
                }
              }
            }
          }
        }
      }
    }
  }
  JOINT rButtock
  {
    OFFSET -8.77824 4.35084 1.2192
    CHANNELS 3 Zrotation Xrotation Yrotation
    JOINT rThigh
    {
      OFFSET 0 -1.70687 -2.19456
      CHANNELS 3 Zrotation Xrotation Yrotation
      JOINT rShin
      {
        OFFSET 0 -36.8199 0.73152
        CHANNELS 3 Zrotation Xrotation Yrotation
        JOINT rFoot
        {
          OFFSET 0.73152 -45.1104 -5.12064
          CHANNELS 3 Zrotation Xrotation Yrotation
          End Site
          {
            OFFSET -1.1221 -3.69964 12.103
          }
        }
      }
    }
  }
  JOINT lButtock
  {
    OFFSET 8.77824 4.35084 1.2192
    CHANNELS 3 Zrotation Xrotation Yrotation
    JOINT lThigh
    {
      OFFSET 0 -1.70687 -2.19456
      CHANNELS 3 Zrotation Xrotation Yrotation
      JOINT lShin
      {
        OFFSET 0 -36.8199 0.73152
        CHANNELS 3 Zrotation Xrotation Yrotation
        JOINT lFoot
        {
          OFFSET -0.73152 -45.1104 -5.12064
          CHANNELS 3 Zrotation Xrotation Yrotation
          End Site
          {
            OFFSET 1.1221 -3.69964 12.103
          }
        }
      }
    }
  }
}
MOTION
Frames:	4
Frame Time:	0.00833333
-51.3586 83.9933 -8.65504 0.0 0.0 0.0 -1.70622 -0.00254498 -0.0464503 -0.470562 0.00242738 -0.081485 7.46452e-15 7.95139e-16 -1.98785e-16 2.25745e-14 9.54166e-15 -5.76165e-16 -0.0 0.0 0.0 -0.0 0.0 0.0 3.92545e-15 1.13369e-16 0.0 8.18513e-14 2.52208e-15 -5.96354e-16 1.37907e-12 -3.23025e-13 -4.45278e-14 1.56406e-11 8.38946e-13 -3.94389e-13 3.69139e-11 1.11459e-12 -9.47805e-13 6.37395e-11 1.92424e-12 -1.6515e-12 3.69203e-11 1.11677e-12 -9.66889e-13 7.73091 5.47488 0.417314 3.6913e-11 1.11459e-12 -9.47805e-13 2.90554 0.965183 0.102902 3.69228e-11 1.11498e-12 -9.54962e-13 10.2786 0.731801 0.0259123 3.69125e-11 1.11796e-12 -9.54166e-13 2.22167 -0.733487 -0.20892 3.82739e-15 1.15699e-16 -1.98785e-16 7.76195e-14 2.41648e-15 -2.78299e-15 1.35591e-12 4.91992e-13 -5.08889e-14 1.56432e-11 2.12451e-14 -3.84847e-13 3.68793e-11 1.10935e-12 -9.41444e-13 6.36942e-11 1.91787e-12 -1.63003e-12 3.68742e-11 1.11081e-12 -9.41444e-13 -7.73091 5.47488 -0.417314 3.68788e-11 1.10912e-12 -9.47805e-13 -2.90554 0.965183 -0.102902 3.68692e-11 1.10942e-12 -9.44625e-13 -10.2786 0.731801 -0.0259123 3.68837e-11 1.11041e-12 -9.54166e-13 -2.22167 -0.733487 0.20892 -2.03217e-16 0.0 -3.88251e-19 -0.810599 -1.92439 -0.00361325 -0.00901541 -2.07859 -0.0743126 -0.483871 3.99775 0.136138 2.03217e-16 0.0 3.88251e-19 -1.78649 -6.85421 0.17048 -0.00323812 6.85139 -0.086386 0.513035 -0.00231403 -0.0581932
-48.9728 82.1561 -11.4865 2.2428 47.7814 7.9383 -3.05076 1.37711 -1.40802 1.00864 -0.21875 -0.471549 -1.89439 1.10023 1.24631 1.24646 7.53945 2.97969 -0.0 0.0 0.0 -0.0 0.0 0.0 -2.52365e-14 1.47857e-13 2.19591e-13 21.087 3.64046 -0.0849979 -5.48704 -2.81105 8.19704 0.0625703 5.55489 0.767511 -8.9654e-10 -3.32008e-10 -7.17784e-10 -1.55866e-09 -5.96617e-10 -1.22401e-09 -8.96534e-10 -3.32007e-10 -7.17801e-10 7.73091 5.47488 0.417314 -8.96541e-10 -3.32009e-10 -7.17784e-10 2.90554 0.965183 0.102902 -8.96533e-10 -3.32008e-10 -7.17789e-10 10.2786 0.731801 0.0259123 -8.96542e-10 -3.32005e-10 -7.17784e-10 2.22167 -0.733487 -0.20892 -2.53501e-14 1.47865e-13 2.19345e-13 -22.3317 4.61969 -1.7047 3.53781 -1.49211 -5.64474 -0.0123555 2.4674 -0.345612 -1.00884e-09 -7.77598e-10 1.86151e-09 -1.7273e-09 -1.3458e-09 3.22623e-09 -1.00884e-09 -7.77597e-10 1.86152e-09 -7.73091 5.47488 -0.417314 -1.00884e-09 -7.77598e-10 1.86151e-09 -2.90554 0.965183 -0.102902 -1.00885e-09 -7.77598e-10 1.86151e-09 -10.2786 0.731801 -0.0259123 -1.00883e-09 -7.77598e-10 1.8615e-09 -2.22167 -0.733487 0.20892 -2.03217e-16 0.0 -3.88251e-19 -3.75256 -11.2553 -0.506423 0.0192869 10.487 0.117214 -0.710542 1.49836 -2.36879 2.03217e-16 0.0 3.88251e-19 -3.48756 -10.5863 1.97489 -0.0430541 13.7845 -0.248733 0.620739 -4.07064 0.931764
-48.9268 82.1245 -11.5074 2.3619 47.8795 8.0519 -4.39851 2.82966 -2.84707 2.56649 -0.455784 -0.882996 -3.9422 2.25102 2.56089 1.68212 15.4455 6.29608 -0.0 0.0 0.0 -0.0 0.0 0.0 -5.94151e-14 3.12483e-13 4.63091e-13 43.399 7.50016 -0.173617 -10.4303 -5.59778 16.9371 -0.0359944 11.4091 1.60118 -1.89982e-09 -7.2509e-10 -1.47977e-09 -3.3022e-09 -1.30047e-09 -2.52319e-09 -1.89982e-09 -7.25091e-10 -1.47978e-09 7.73091 5.47488 0.417314 -1.89982e-09 -7.25092e-10 -1.47977e-09 2.90554 0.965183 0.102902 -1.89982e-09 -7.25091e-10 -1.47977e-09 10.2786 0.731801 0.0259123 -1.89982e-09 -7.25088e-10 -1.47976e-09 2.22167 -0.733487 -0.20892 -5.9546e-14 3.12497e-13 4.62792e-13 -45.636 9.48825 -3.54631 6.95155 -3.01591 -11.6113 0.00710109 5.08498 -0.714443 -2.12483e-09 -1.62653e-09 3.90304e-09 -3.63813e-09 -2.81494e-09 6.76417e-09 -2.12483e-09 -1.62653e-09 3.90304e-09 -7.73091 5.47488 -0.417314 -2.12483e-09 -1.62653e-09 3.90304e-09 -2.90554 0.965183 -0.102902 -2.12484e-09 -1.62653e-09 3.90304e-09 -10.2786 0.731801 -0.0259123 -2.12482e-09 -1.62653e-09 3.90303e-09 -2.22167 -0.733487 0.20892 -2.03217e-16 0.0 -3.88251e-19 -7.04774 -21.0901 -1.06815 -0.0488422 23.7457 0.344285 -1.1843 -1.12578 -5.00369 2.03217e-16 0.0 3.88251e-19 -5.01217 -14.5105 3.94325 -0.0391211 21.1153 -0.435259 0.89014 -8.36606 2.00308
-48.8847 82.0641 -11.5262 2.3889 48.0853 8.1215 -5.54287 4.12692 -4.14071 3.95801 -0.660969 -1.25175 -5.82686 3.29445 3.74444 1.23549 22.3635 9.58898 -0.0 0.0 0.0 -0.0 0.0 0.0 -8.35605e-14 4.43345e-13 6.58772e-13 63.2939 10.9213 -0.259173 -14.1122 -7.74417 24.8026 -0.27525 16.6525 2.3921 -2.76345e-09 -9.98253e-10 -2.15146e-09 -4.80346e-09 -1.7937e-09 -3.66871e-09 -2.76344e-09 -9.98255e-10 -2.15147e-09 7.73091 5.47488 0.417314 -2.76345e-09 -9.98255e-10 -2.15146e-09 2.90554 0.965183 0.102902 -2.76344e-09 -9.98254e-10 -2.15146e-09 10.2786 0.731801 0.0259123 -2.76345e-09 -9.98251e-10 -2.15144e-09 2.22167 -0.733487 -0.20892 -8.3705e-14 4.43363e-13 6.58433e-13 -66.1509 13.8093 -5.24964 9.74358 -4.30286 -16.9778 0.0528683 7.40113 -1.04458 -3.10027e-09 -2.33501e-09 5.58642e-09 -5.30928e-09 -4.04124e-09 9.68196e-09 -3.10028e-09 -2.33501e-09 5.58644e-09 -7.73091 5.47488 -0.417314 -3.10027e-09 -2.33501e-09 5.58643e-09 -2.90554 0.965183 -0.102902 -3.10029e-09 -2.33501e-09 5.58643e-09 -10.2786 0.731801 -0.0259123 -3.10027e-09 -2.33501e-09 5.58642e-09 -2.22167 -0.733487 0.20892 -2.03217e-16 0.0 -3.88251e-19 -10.1933 -29.9074 -1.71069 -0.219608 35.6168 0.608047 -1.81821 -3.46764 -7.38916 2.03217e-16 0.0 3.88251e-19 -6.15163 -17.9833 5.76793 0.00993694 27.6496 -0.624488 1.26588 -12.193 2.97172
